<svg width="42" height="42" viewBox="0 0 42 42" fill="none" xmlns="http://www.w3.org/2000/svg">
<circle cx="21" cy="21" r="21" fill="#F0FBF9"/>
<path d="M19 25.5V16.5L25 21L19 25.5ZM31 21C31 26.52 26.52 31 21 31C15.48 31 11 26.52 11 21C11 19.81 11.22 18.68 11.6 17.62L13.48 18.3C13.17 19.14 13 20.05 13 21C13 25.41 16.59 29 21 29C25.41 29 29 25.41 29 21C29 16.59 25.41 13 21 13C20.05 13 19.15 13.17 18.31 13.48L17.63 11.59C18.69 11.22 19.82 11 21 11C26.52 11 31 15.48 31 21ZM14.5 13C13.67 13 13 13.67 13 14.5C13 15.33 13.67 16 14.5 16C15.33 16 16 15.33 16 14.5C16 13.67 15.33 13 14.5 13Z" fill="#61DEC2"/>
</svg>
