<svg width="39" height="39" viewBox="0 0 39 39" fill="none" xmlns="http://www.w3.org/2000/svg">
<path d="M4.875 13H34.125C34.556 13 34.9693 12.8288 35.274 12.524C35.5788 12.2193 35.75 11.806 35.75 11.375C35.75 10.944 35.5788 10.5307 35.274 10.226C34.9693 9.92121 34.556 9.75 34.125 9.75H4.875C4.44402 9.75 4.0307 9.92121 3.72595 10.226C3.4212 10.5307 3.25 10.944 3.25 11.375C3.25 11.806 3.4212 12.2193 3.72595 12.524C4.0307 12.8288 4.44402 13 4.875 13V13ZM34.125 26H4.875C4.44402 26 4.0307 26.1712 3.72595 26.476C3.4212 26.7807 3.25 27.194 3.25 27.625C3.25 28.056 3.4212 28.4693 3.72595 28.774C4.0307 29.0788 4.44402 29.25 4.875 29.25H34.125C34.556 29.25 34.9693 29.0788 35.274 28.774C35.5788 28.4693 35.75 28.056 35.75 27.625C35.75 27.194 35.5788 26.7807 35.274 26.476C34.9693 26.1712 34.556 26 34.125 26ZM34.125 17.875H4.875C4.44402 17.875 4.0307 18.0462 3.72595 18.351C3.4212 18.6557 3.25 19.069 3.25 19.5C3.25 19.931 3.4212 20.3443 3.72595 20.649C4.0307 20.9538 4.44402 21.125 4.875 21.125H34.125C34.556 21.125 34.9693 20.9538 35.274 20.649C35.5788 20.3443 35.75 19.931 35.75 19.5C35.75 19.069 35.5788 18.6557 35.274 18.351C34.9693 18.0462 34.556 17.875 34.125 17.875Z" fill="#7C7FB2"/>
</svg>
