<svg width="37" height="37" viewBox="0 0 37 37" fill="none" xmlns="http://www.w3.org/2000/svg">
<path d="M7.44996 4.625V5.55H4.62501C4.37969 5.55 4.14441 5.64745 3.97094 5.82092C3.79747 5.99439 3.70001 6.22967 3.70001 6.475V30.525C3.70001 30.7703 3.79747 31.0056 3.97094 31.1791C4.14441 31.3525 4.37969 31.45 4.62501 31.45H32.375C32.6203 31.45 32.8556 31.3525 33.0291 31.1791C33.2026 31.0056 33.3 30.7703 33.3 30.525V6.475C33.3 6.22967 33.2026 5.99439 33.0291 5.82092C32.8556 5.64745 32.6203 5.55 32.375 5.55H29.5501V4.625C29.5501 4.37967 29.4526 4.14439 29.2791 3.97092C29.1057 3.79745 28.8704 3.7 28.6251 3.7H23.0233C21.2806 3.7 19.647 4.44925 18.5 5.7165C17.9291 5.08267 17.2315 4.57571 16.4523 4.22836C15.6732 3.88101 14.8298 3.70101 13.9768 3.7H8.37496C8.12964 3.7 7.89436 3.79745 7.72089 3.97092C7.54742 4.14439 7.44996 4.37967 7.44996 4.625ZM27.7001 6.4084C27.6967 6.45273 27.6967 6.49726 27.7001 6.5416V25.789H23.347C21.9217 25.7896 20.5389 26.2742 19.425 27.1635V7.548C19.8076 6.93851 20.3381 6.43571 20.9673 6.08638C21.5964 5.73704 22.3037 5.55252 23.0233 5.55H27.7001V6.4084ZM29.5501 7.4H31.45V29.6H19.66C20.0689 28.9982 20.6184 28.5053 21.2609 28.1639C21.9034 27.8225 22.6195 27.6429 23.347 27.6408H28.6251C28.8704 27.6408 29.1057 27.5434 29.2791 27.3699C29.4526 27.1965 29.5501 26.9612 29.5501 26.7158V7.4ZM13.653 27.6408C15.1312 27.6408 16.5039 28.3808 17.3401 29.6H5.55001V7.4H7.44996V26.7158C7.44996 26.9612 7.54742 27.1965 7.72089 27.3699C7.89436 27.5434 8.12964 27.6408 8.37496 27.6408H13.653ZM9.29996 25.7908V6.5416C9.30312 6.49725 9.30312 6.45274 9.29996 6.4084V5.55H13.9768C15.4309 5.55 16.7869 6.30295 17.575 7.54615V27.1654C16.4612 26.2761 15.0783 25.7914 13.653 25.7908H9.29996Z" fill="#7C7FB2"/>
</svg>
