<svg width="32" height="32" viewBox="0 0 32 32" fill="none" xmlns="http://www.w3.org/2000/svg">
<path d="M7.33333 2.66667C6.44928 2.66667 5.60143 3.01786 4.97631 3.64298C4.35119 4.2681 4 5.11595 4 6.00001V26C4 26.8841 4.35119 27.7319 4.97631 28.357C5.60143 28.9821 6.44928 29.3333 7.33333 29.3333H17.08C16.5084 28.7383 16.0244 28.0649 15.6427 27.3333H7.33333C6.97971 27.3333 6.64057 27.1929 6.39052 26.9428C6.14048 26.6928 6 26.3536 6 26H15.084C14.8748 25.3512 14.7432 24.6798 14.692 24H6V6.00001C6 5.64638 6.14048 5.30724 6.39052 5.0572C6.64057 4.80715 6.97971 4.66667 7.33333 4.66667H22.6667C23.0203 4.66667 23.3594 4.80715 23.6095 5.0572C23.8595 5.30724 24 5.64638 24 6.00001V14.692C24.6933 14.7453 25.3627 14.8787 26 15.084V6.00001C26 5.11595 25.6488 4.2681 25.0237 3.64298C24.3986 3.01786 23.5507 2.66667 22.6667 2.66667H7.33333Z" fill="#7C7FB2"/>
<path d="M30.6667 23.3333C30.6667 21.3884 29.894 19.5231 28.5188 18.1479C27.1435 16.7726 25.2783 16 23.3333 16C21.3884 16 19.5231 16.7726 18.1479 18.1479C16.7726 19.5231 16 21.3884 16 23.3333C16 25.2783 16.7726 27.1435 18.1479 28.5188C19.5231 29.894 21.3884 30.6667 23.3333 30.6667C25.2783 30.6667 27.1435 29.894 28.5188 28.5188C29.894 27.1435 30.6667 25.2783 30.6667 23.3333ZM22.552 20.1293L26.2933 22.5827C26.4093 22.6571 26.5044 22.7598 26.5697 22.881C26.635 23.0023 26.6684 23.1383 26.6667 23.276C26.6668 23.4146 26.6339 23.5513 26.5707 23.6747C26.511 23.7968 26.4199 23.9008 26.3067 23.976L22.564 26.5293C22.4989 26.5732 22.428 26.6077 22.3533 26.632C22.18 26.6873 21.9924 26.6764 21.8267 26.6013C21.7312 26.5566 21.6441 26.4957 21.5693 26.4213C21.4971 26.3427 21.4385 26.2526 21.396 26.1547C21.3544 26.0545 21.3331 25.9471 21.3333 25.8387V20.828C21.3326 20.6676 21.3785 20.5104 21.4654 20.3755C21.5522 20.2406 21.6763 20.1338 21.8227 20.068C21.9389 20.0135 22.0674 19.9904 22.1953 20.0009C22.3233 20.0115 22.4462 20.0553 22.552 20.128V20.1293Z" fill="#7C7FB2"/>
<path d="M8 8.00001C8 7.64638 8.14048 7.30724 8.39052 7.0572C8.64057 6.80715 8.97971 6.66667 9.33333 6.66667H20C20.3536 6.66667 20.6928 6.80715 20.9428 7.0572C21.1929 7.30724 21.3333 7.64638 21.3333 8.00001V10.6667C21.3333 11.0203 21.1929 11.3594 20.9428 11.6095C20.6928 11.8595 20.3536 12 20 12H9.33333C8.97971 12 8.64057 11.8595 8.39052 11.6095C8.14048 11.3594 8 11.0203 8 10.6667V8.00001ZM10 10H19.3333V8.66667H10V10Z" fill="#7C7FB2"/>
</svg>
