<svg width="27" height="27" viewBox="0 0 27 27" fill="none" xmlns="http://www.w3.org/2000/svg">
<path d="M10.4062 9.00007H1.96868C0.883095 9.00007 0 8.11697 0 7.03118V1.96868C0 0.883095 0.883095 0 1.96868 0H10.4062C11.492 0 12.3751 0.883095 12.3751 1.96868V7.03118C12.3751 8.11697 11.492 9.00007 10.4062 9.00007ZM1.96868 1.6875C1.81357 1.6875 1.6875 1.81357 1.6875 1.96868V7.03118C1.6875 7.1865 1.81357 7.31257 1.96868 7.31257H10.4062C10.5615 7.31257 10.6876 7.1865 10.6876 7.03118V1.96868C10.6876 1.81357 10.5615 1.6875 10.4062 1.6875H1.96868Z" fill="#7C7FB2"/>
<path d="M10.4062 27H1.96868C0.883095 27 0 26.1169 0 25.0313V13.2188C0 12.133 0.883095 11.2499 1.96868 11.2499H10.4062C11.492 11.2499 12.3751 12.133 12.3751 13.2188V25.0313C12.3751 26.1169 11.492 27 10.4062 27ZM1.96868 12.9374C1.81357 12.9374 1.6875 13.0635 1.6875 13.2188V25.0313C1.6875 25.1864 1.81357 25.3125 1.96868 25.3125H10.4062C10.5615 25.3125 10.6876 25.1864 10.6876 25.0313V13.2188C10.6876 13.0635 10.5615 12.9374 10.4062 12.9374H1.96868Z" fill="#7C7FB2"/>
<path d="M25.0313 27H16.5938C15.508 27 14.6249 26.1169 14.6249 25.0313V19.9688C14.6249 18.883 15.508 17.9999 16.5938 17.9999H25.0313C26.1169 17.9999 27 18.883 27 19.9688V25.0313C27 26.1169 26.1169 27 25.0313 27ZM16.5938 19.6874C16.4385 19.6874 16.3124 19.8135 16.3124 19.9688V25.0313C16.3124 25.1864 16.4385 25.3125 16.5938 25.3125H25.0313C25.1864 25.3125 25.3125 25.1864 25.3125 25.0313V19.9688C25.3125 19.8135 25.1864 19.6874 25.0313 19.6874H16.5938Z" fill="#7C7FB2"/>
<path d="M25.0313 15.7501H16.5938C15.508 15.7501 14.6249 14.867 14.6249 13.7812V1.96868C14.6249 0.883095 15.508 0 16.5938 0H25.0313C26.1169 0 27 0.883095 27 1.96868V13.7812C27 14.867 26.1169 15.7501 25.0313 15.7501ZM16.5938 1.6875C16.4385 1.6875 16.3124 1.81357 16.3124 1.96868V13.7812C16.3124 13.9365 16.4385 14.0626 16.5938 14.0626H25.0313C25.1864 14.0626 25.3125 13.9365 25.3125 13.7812V1.96868C25.3125 1.81357 25.1864 1.6875 25.0313 1.6875H16.5938Z" fill="#7C7FB2"/>
</svg>
