<svg width="17" height="17" viewBox="0 0 17 17" fill="none" xmlns="http://www.w3.org/2000/svg">
<path d="M6.375 1.0625C4.32703 1.0625 2.65625 2.73328 2.65625 4.78125C2.65625 6.06156 3.30969 7.19844 4.29994 7.86941C2.40497 8.68222 1.0625 10.5628 1.0625 12.75H2.125C2.125 10.3966 4.02156 8.5 6.375 8.5C7.10547 8.5 7.786 8.69125 8.38366 9.01478C7.7719 9.77127 7.43796 10.7146 7.4375 11.6875C7.4375 14.0282 9.34681 15.9375 11.6875 15.9375C14.0282 15.9375 15.9375 14.0282 15.9375 11.6875C15.9375 9.34681 14.0282 7.4375 11.6875 7.4375C10.7922 7.43827 9.9202 7.72305 9.197 8.25084C8.95834 8.10429 8.7086 7.97658 8.45006 7.86888C8.95547 7.52769 9.36956 7.06785 9.6561 6.52959C9.94265 5.99132 10.0929 5.39103 10.0938 4.78125C10.0938 2.73328 8.42297 1.0625 6.375 1.0625ZM6.375 2.125C7.84816 2.125 9.03125 3.30809 9.03125 4.78125C9.03125 6.25441 7.84816 7.4375 6.375 7.4375C4.90184 7.4375 3.71875 6.25441 3.71875 4.78125C3.71875 3.30809 4.90184 2.125 6.375 2.125ZM11.6875 8.5C13.4534 8.5 14.875 9.92163 14.875 11.6875C14.875 13.4534 13.4534 14.875 11.6875 14.875C9.92163 14.875 8.5 13.4534 8.5 11.6875C8.5 9.92163 9.92163 8.5 11.6875 8.5ZM13.4305 10.243L11.6875 11.9866L10.4757 10.7743L9.71178 11.5382L11.3055 13.132L11.6875 13.4969L12.0695 13.132L14.1945 11.007L13.4305 10.243Z" fill="#F98686"/>
</svg>
