<svg width="42" height="42" viewBox="0 0 42 42" fill="none" xmlns="http://www.w3.org/2000/svg">
<circle cx="21" cy="21" r="21" fill="#FFF9EF"/>
<path d="M29.937 16.53C28.227 13.119 24.803 11 21 11C15.486 11 11 15.486 11 21C11 26.514 15.486 31 21 31C24.803 31 28.227 28.881 29.937 25.47C30.0516 25.2415 30.0743 24.9777 30.0005 24.733C29.9266 24.4882 29.7619 24.281 29.54 24.154L24.017 21L29.539 17.847C30 17.583 30.175 17.005 29.937 16.53ZM21.504 20.132C21.3508 20.2193 21.2234 20.3456 21.1348 20.498C21.0462 20.6505 20.9995 20.8237 20.9995 21C20.9995 21.1763 21.0462 21.3495 21.1348 21.502C21.2234 21.6544 21.3508 21.7807 21.504 21.868L27.677 25.393C26.953 26.5032 25.9629 27.4148 24.7967 28.0448C23.6306 28.6747 22.3254 29.0031 21 29C16.589 29 13 25.411 13 21C13 16.589 16.589 13 21 13C22.3253 12.9969 23.6304 13.3251 24.7965 13.9549C25.9626 14.5847 26.9528 15.496 27.677 16.606L21.504 20.132Z" fill="#FFD48C"/>
<path d="M20.5 18C21.3284 18 22 17.3284 22 16.5C22 15.6716 21.3284 15 20.5 15C19.6716 15 19 15.6716 19 16.5C19 17.3284 19.6716 18 20.5 18Z" fill="#FFD48C"/>
</svg>
