<svg width="30" height="26" viewBox="0 0 30 26" fill="none" xmlns="http://www.w3.org/2000/svg">
<g clip-path="url(#clip0)">
<path d="M23.0303 6.136L30 13.052L23.0303 19.916V15.314H12.601V10.738H23.0303V6.136ZM18.8384 19.448L21.5152 22.23C18.8889 24.7607 16.0438 26.026 12.9798 26.026C9.3266 26.026 6.25 24.7823 3.75 22.295C1.25 19.8077 0 16.7007 0 12.974C0 10.634 0.572391 8.46733 1.71717 6.474C2.86195 4.48066 4.40657 2.90767 6.35101 1.755C8.29545 0.602334 10.404 0.026001 12.6768 0.026001C15.7744 0.026001 18.7121 1.30867 21.4899 3.874L18.8384 6.63C16.9192 4.82733 14.8737 3.926 12.702 3.926C10.1936 3.926 8.0766 4.82733 6.35101 6.63C4.62542 8.43266 3.76263 10.634 3.76263 13.234C3.76263 15.6607 4.65067 17.7493 6.42677 19.5C8.20286 21.2507 10.2862 22.126 12.6768 22.126C14.8822 22.126 16.936 21.2333 18.8384 19.448Z" fill="#7C7FB2"/>
</g>
<defs>
<clipPath id="clip0">
<rect width="30" height="26" fill="white"/>
</clipPath>
</defs>
</svg>
