<svg width="312" height="76" viewBox="0 0 312 76" fill="none" xmlns="http://www.w3.org/2000/svg">
<path d="M59.5293 29.6026C59.5293 31.7633 59.3852 33.708 59.0971 35.4367H15.3415C15.7016 39.7582 17.2141 43.1434 19.8791 45.5923C22.5441 48.0412 25.8212 49.2656 29.7106 49.2656C35.3286 49.2656 39.326 46.8527 41.7029 42.027H58.0167C56.2881 47.7891 52.9749 52.5428 48.0772 56.2881C43.1794 59.9614 37.1653 61.7981 30.0347 61.7981C24.2727 61.7981 19.0868 60.5376 14.4772 58.0167C9.93955 55.4238 6.37428 51.7865 3.78135 47.1048C1.26045 42.4232 0 37.0212 0 30.899C0 24.7048 1.26045 19.2669 3.78135 14.5852C6.30225 9.90354 9.83151 6.30225 14.3691 3.78135C18.9068 1.26045 24.1286 0 30.0347 0C35.7248 0 40.8026 1.22444 45.2682 3.67331C49.8058 6.12218 53.299 9.61543 55.7479 14.1531C58.2688 18.6187 59.5293 23.7685 59.5293 29.6026ZM43.8637 25.281C43.7916 21.3916 42.3871 18.2945 39.6502 15.9897C36.9132 13.6129 33.564 12.4244 29.6026 12.4244C25.8572 12.4244 22.6881 13.5768 20.0952 15.8817C17.5743 18.1145 16.0257 21.2476 15.4495 25.281H43.8637Z" fill="#F98686"/>
<path d="M64.9365 45.4243C64.9365 42.333 65.5437 39.5913 66.7581 37.1992C68.0094 34.8071 69.6839 32.967 71.7815 31.679C73.916 30.3909 76.2897 29.7469 78.9026 29.7469C81.1843 29.7469 83.1716 30.2069 84.8645 31.1269C86.5941 32.047 87.9742 33.2062 89.0046 34.6047V30.2437H96.7881V60.8257H89.0046V56.3543C88.011 57.7896 86.6309 58.9856 84.8645 59.9425C83.1348 60.8625 81.1291 61.3225 78.8474 61.3225C76.2713 61.3225 73.916 60.6601 71.7815 59.3353C69.6839 58.0104 68.0094 56.1519 66.7581 53.7598C65.5437 51.3309 64.9365 48.5524 64.9365 45.4243ZM89.0046 45.5347C89.0046 43.6578 88.6366 42.057 87.9006 40.7321C87.1645 39.3705 86.1709 38.34 84.9197 37.6408C83.6684 36.9048 82.3252 36.5368 80.8899 36.5368C79.4546 36.5368 78.1298 36.8864 76.9153 37.5856C75.7009 38.2848 74.7072 39.3153 73.9344 40.6769C73.1984 42.0018 72.8304 43.5842 72.8304 45.4243C72.8304 47.2644 73.1984 48.8836 73.9344 50.2821C74.7072 51.6438 75.7009 52.6926 76.9153 53.4286C78.1666 54.1647 79.4914 54.5327 80.8899 54.5327C82.3252 54.5327 83.6684 54.1831 84.9197 53.4838C86.1709 52.7478 87.1645 51.7174 87.9006 50.3925C88.6366 49.0309 89.0046 47.4116 89.0046 45.5347Z" fill="#F98686"/>
<path d="M116.039 61.3225C113.537 61.3225 111.292 60.8809 109.304 59.9977C107.317 59.0777 105.735 57.8448 104.557 56.2991C103.416 54.7535 102.791 53.0422 102.68 51.1653H110.464C110.611 52.343 111.181 53.3182 112.175 54.0911C113.205 54.8639 114.475 55.2503 115.984 55.2503C117.456 55.2503 118.597 54.9559 119.406 54.3671C120.253 53.7782 120.676 53.0238 120.676 52.1038C120.676 51.1101 120.161 50.3741 119.13 49.8957C118.137 49.3805 116.536 48.8284 114.328 48.2396C112.046 47.6876 110.169 47.1172 108.697 46.5284C107.262 45.9395 106.011 45.0379 104.943 43.8234C103.913 42.609 103.398 40.9713 103.398 38.9105C103.398 37.2176 103.876 35.6719 104.833 34.2735C105.827 32.875 107.225 31.771 109.028 30.9613C110.868 30.1517 113.021 29.7469 115.487 29.7469C119.13 29.7469 122.038 30.6669 124.209 32.507C126.38 34.3103 127.576 36.7576 127.797 39.8489H120.4C120.29 38.6344 119.774 37.6776 118.854 36.9784C117.971 36.2423 116.775 35.8743 115.266 35.8743C113.868 35.8743 112.782 36.1319 112.009 36.6472C111.273 37.1624 110.905 37.88 110.905 38.8C110.905 39.8305 111.42 40.6217 112.451 41.1737C113.481 41.689 115.082 42.2226 117.253 42.7746C119.462 43.3266 121.283 43.897 122.718 44.4859C124.154 45.0747 125.387 45.9947 126.417 47.246C127.484 48.4604 128.036 50.0797 128.073 52.1038C128.073 53.8702 127.576 55.4527 126.583 56.8512C125.626 58.2496 124.227 59.3537 122.387 60.1633C120.584 60.9361 118.468 61.3225 116.039 61.3225Z" fill="#F98686"/>
<path d="M163.674 30.2437L144.74 75.2887H136.515L143.139 60.0529L130.884 30.2437H139.551L147.445 51.607L155.449 30.2437H163.674Z" fill="#F98686"/>
<path d="M182.726 19.9761V60.8257H176.433V19.9761H182.726Z" fill="#6C79D3"/>
<path d="M218.866 44.8723C218.866 46.0131 218.792 47.0436 218.645 47.9636H195.405C195.589 50.3925 196.49 52.343 198.11 53.815C199.729 55.2871 201.716 56.0231 204.071 56.0231C207.457 56.0231 209.849 54.6063 211.248 51.7725H218.038C217.118 54.5694 215.443 56.8695 213.014 58.6728C210.622 60.4393 207.641 61.3225 204.071 61.3225C201.164 61.3225 198.551 60.6785 196.233 59.3904C193.951 58.0656 192.148 56.2255 190.823 53.8702C189.535 51.4781 188.891 48.718 188.891 45.5899C188.891 42.4618 189.517 39.7201 190.768 37.3648C192.056 34.9727 193.841 33.1326 196.122 31.8445C198.441 30.5565 201.091 29.9125 204.071 29.9125C206.942 29.9125 209.5 30.5381 211.745 31.7893C213.989 33.0406 215.738 34.8071 216.989 37.0888C218.24 39.3336 218.866 41.9281 218.866 44.8723ZM212.297 42.885C212.26 40.5665 211.432 38.708 209.813 37.3096C208.193 35.9111 206.188 35.2119 203.795 35.2119C201.624 35.2119 199.766 35.9111 198.22 37.3096C196.674 38.6712 195.754 40.5297 195.46 42.885H212.297Z" fill="#6C79D3"/>
<path d="M222.961 45.4795C222.961 42.425 223.587 39.7201 224.838 37.3648C226.126 35.0095 227.856 33.1878 230.027 31.8997C232.235 30.5749 234.664 29.9125 237.314 29.9125C239.706 29.9125 241.785 30.3909 243.551 31.3477C245.355 32.2678 246.79 33.427 247.857 34.8255V30.4093H254.205V60.8257H247.857V56.2991C246.79 57.7344 245.336 58.9304 243.496 59.8873C241.656 60.8441 239.558 61.3225 237.203 61.3225C234.59 61.3225 232.198 60.6601 230.027 59.3352C227.856 57.9736 226.126 56.0967 224.838 53.7046C223.587 51.2757 222.961 48.534 222.961 45.4795ZM247.857 45.5899C247.857 43.4922 247.416 41.6705 246.532 40.1249C245.686 38.5792 244.563 37.4016 243.165 36.5919C241.767 35.7823 240.258 35.3775 238.638 35.3775C237.019 35.3775 235.51 35.7823 234.112 36.5919C232.713 37.3648 231.573 38.524 230.689 40.0697C229.843 41.5785 229.42 43.3818 229.42 45.4795C229.42 47.5772 229.843 49.4172 230.689 50.9997C231.573 52.5822 232.713 53.7966 234.112 54.6431C235.547 55.4527 237.056 55.8575 238.638 55.8575C240.258 55.8575 241.767 55.4527 243.165 54.6431C244.563 53.8334 245.686 52.6558 246.532 51.1101C247.416 49.5276 247.857 47.6876 247.857 45.5899Z" fill="#6C79D3"/>
<path d="M268.764 34.8255C269.684 33.2798 270.899 32.0838 272.407 31.2373C273.953 30.3541 275.775 29.9125 277.873 29.9125V36.4263H276.272C273.806 36.4263 271.929 37.052 270.641 38.3032C269.39 39.5545 268.764 41.7257 268.764 44.8171V60.8257H262.471V30.4093H268.764V34.8255Z" fill="#6C79D3"/>
<path d="M299.003 29.9125C301.395 29.9125 303.53 30.4093 305.407 31.4029C307.32 32.3966 308.811 33.8686 309.878 35.8191C310.945 37.7696 311.479 40.1249 311.479 42.885V60.8257H305.241V43.8234C305.241 41.1001 304.56 39.0208 303.199 37.5856C301.837 36.1135 299.979 35.3775 297.623 35.3775C295.268 35.3775 293.391 36.1135 291.993 37.5856C290.631 39.0208 289.95 41.1001 289.95 43.8234V60.8257H283.657V30.4093H289.95V33.887C290.981 32.6358 292.287 31.6605 293.869 30.9613C295.489 30.2621 297.2 29.9125 299.003 29.9125Z" fill="#6C79D3"/>
</svg>
