<svg width="25" height="25" viewBox="0 0 25 25" fill="none" xmlns="http://www.w3.org/2000/svg">
<path d="M10.5687 3.38335C10.7244 2.99867 10.9913 2.66924 11.3354 2.43728C11.6795 2.20531 12.085 2.08139 12.5 2.08139C12.9149 2.08139 13.3205 2.20531 13.6645 2.43728C14.0086 2.66924 14.2756 2.99867 14.4312 3.38335C15.9716 3.80697 17.3303 4.72455 18.2987 5.99515C19.2671 7.26576 19.7916 8.81912 19.7916 10.4167V15.3094L21.7 18.1719C21.8046 18.3288 21.8648 18.5111 21.8739 18.6995C21.8831 18.8878 21.8409 19.0752 21.7519 19.2414C21.663 19.4077 21.5305 19.5467 21.3687 19.6436C21.2069 19.7405 21.0219 19.7917 20.8333 19.7917H16.1093C15.9839 20.6595 15.55 21.4531 14.8872 22.027C14.2243 22.601 13.3768 22.9169 12.5 22.9169C11.6231 22.9169 10.7757 22.601 10.1128 22.027C9.44991 21.4531 9.01602 20.6595 8.8906 19.7917H4.16664C3.97805 19.7917 3.793 19.7405 3.63121 19.6436C3.46943 19.5467 3.33699 19.4077 3.24802 19.2414C3.15905 19.0752 3.11689 18.8878 3.12604 18.6995C3.13519 18.5111 3.19531 18.3288 3.29997 18.1719L5.20831 15.3094V10.4167C5.20831 7.05835 7.47914 4.22918 10.5687 3.38335ZM11.0271 19.7917C11.1346 20.0965 11.3341 20.3605 11.598 20.5472C11.8619 20.7339 12.1772 20.8342 12.5005 20.8342C12.8238 20.8342 13.1391 20.7339 13.403 20.5472C13.6669 20.3605 13.8663 20.0965 13.9739 19.7917H11.026H11.0271ZM12.5 5.20835C11.1186 5.20835 9.79388 5.75708 8.81712 6.73383C7.84037 7.71058 7.29164 9.03534 7.29164 10.4167V15.625C7.29169 15.8308 7.23079 16.0319 7.11664 16.2031L6.11351 17.7083H18.8854L17.8823 16.2031C17.7685 16.0318 17.708 15.8307 17.7083 15.625V10.4167C17.7083 9.03534 17.1596 7.71058 16.1828 6.73383C15.2061 5.75708 13.8813 5.20835 12.5 5.20835Z" fill="#AEB3D6"/>
</svg>
