<svg width="34" height="34" viewBox="0 0 34 34" fill="none" xmlns="http://www.w3.org/2000/svg">
<path d="M3.29376 20.7752L5.46856 18.9158C5.36563 18.285 5.31251 17.6408 5.31251 16.9967C5.31251 16.3526 5.36563 15.7084 5.46856 15.0776L3.29376 13.2182C3.12972 13.0777 3.01231 12.8907 2.95716 12.6819C2.902 12.4732 2.9117 12.2526 2.98497 12.0494L3.01485 11.9631C3.61357 10.2897 4.51011 8.73853 5.66114 7.38439L5.7209 7.31466C5.86054 7.15048 6.04664 7.03245 6.25468 6.97615C6.46273 6.91984 6.68295 6.92789 6.88634 6.99923L9.58575 7.9588C10.5818 7.142 11.6941 6.49786 12.8961 6.0463L13.4174 3.22403C13.4567 3.01167 13.5597 2.81631 13.7127 2.66389C13.8658 2.51147 14.0615 2.40922 14.274 2.37071L14.3637 2.35411C16.0936 2.042 17.9131 2.042 19.643 2.35411L19.7326 2.37071C19.9451 2.40922 20.1409 2.51147 20.2939 2.66389C20.4469 2.81631 20.5499 3.01167 20.5893 3.22403L21.1139 6.05958C22.3062 6.51124 23.4166 7.15504 24.401 7.96544L27.1203 6.99923C27.3236 6.92732 27.544 6.91898 27.7522 6.97532C27.9604 7.03166 28.1465 7.15002 28.2857 7.31466L28.3455 7.38439C29.4952 8.73948 30.3916 10.2904 30.9918 11.9631L31.0217 12.0494C31.1711 12.4645 31.0482 12.9293 30.7129 13.2182L28.5115 15.0975C28.6145 15.7217 28.6643 16.3592 28.6643 16.9934C28.6643 17.6309 28.6145 18.2684 28.5115 18.8893L30.7129 20.7686C30.8769 20.909 30.9943 21.096 31.0495 21.3048C31.1047 21.5136 31.095 21.7342 31.0217 21.9373L30.9918 22.0236C30.3908 23.6971 29.501 25.241 28.3455 26.6024L28.2857 26.6721C28.1461 26.8363 27.96 26.9543 27.752 27.0106C27.5439 27.0669 27.3237 27.0589 27.1203 26.9875L24.401 26.0213C23.4115 26.8348 22.3059 27.4789 21.1139 27.9272L20.5893 30.7627C20.5499 30.9751 20.4469 31.1704 20.2939 31.3229C20.1409 31.4753 19.9451 31.5775 19.7326 31.616L19.643 31.6326C17.8972 31.9464 16.1095 31.9464 14.3637 31.6326L14.274 31.616C14.0615 31.5775 13.8658 31.4753 13.7127 31.3229C13.5597 31.1704 13.4567 30.9751 13.4174 30.7627L12.8961 27.9404C11.6946 27.4901 10.5761 26.8438 9.58575 26.0279L6.88634 26.9875C6.68302 27.0594 6.46263 27.0678 6.25446 27.0114C6.04629 26.9551 5.8602 26.8367 5.7209 26.6721L5.66114 26.6024C4.50567 25.2377 3.61583 23.6971 3.01485 22.0236L2.98497 21.9373C2.83555 21.5289 2.9584 21.0641 3.29376 20.7752ZM7.82598 15.4693C7.74298 15.9707 7.69981 16.4854 7.69981 17C7.69981 17.5147 7.74298 18.0293 7.82598 18.5307L8.04512 19.8621L5.56485 21.9838C5.94085 22.85 6.41547 23.67 6.9793 24.4276L10.0606 23.3352L11.1031 24.1918C11.8967 24.8426 12.7799 25.3539 13.7361 25.7125L15.0012 26.1873L15.5955 29.408C16.5333 29.5143 17.48 29.5143 18.4178 29.408L19.0121 26.1807L20.2672 25.6992C21.2135 25.3406 22.0934 24.8293 22.8803 24.1818L23.9229 23.3219L27.024 24.4242C27.5885 23.6639 28.06 22.8438 28.4385 21.9805L25.9316 19.8389L26.1475 18.5108C26.2272 18.016 26.2703 17.5047 26.2703 17C26.2703 16.492 26.2305 15.984 26.1475 15.4893L25.9316 14.1611L28.4385 12.0195C28.0633 11.1529 27.5885 10.3361 27.024 9.57579L23.9229 10.6781L22.8803 9.81817C22.0934 9.17071 21.2135 8.65939 20.2672 8.30079L19.0088 7.82599L18.4145 4.59864C17.4815 4.49239 16.5285 4.49239 15.5922 4.59864L14.9979 7.81935L13.7328 8.29415C12.7799 8.65274 11.8934 9.16407 11.0998 9.81485L10.0572 10.6715L6.97598 9.57911C6.41153 10.3395 5.94004 11.1596 5.56153 12.0229L8.0418 14.1445L7.82598 15.4693ZM17 10.8242C20.2273 10.8242 22.8438 13.4406 22.8438 16.668C22.8438 19.8953 20.2273 22.5117 17 22.5117C13.7727 22.5117 11.1563 19.8953 11.1563 16.668C11.1563 13.4406 13.7727 10.8242 17 10.8242ZM14.3703 19.2977C14.7152 19.6436 15.1251 19.9179 15.5764 20.1048C16.0277 20.2917 16.5115 20.3875 17 20.3867C17.9928 20.3867 18.9258 19.9983 19.6297 19.2977C19.9756 18.9528 20.2499 18.5429 20.4368 18.0916C20.6237 17.6403 20.7195 17.1565 20.7188 16.668C20.7188 15.6752 20.3303 14.7422 19.6297 14.0383C18.9258 13.3344 17.9928 12.9492 17 12.9492C16.0072 12.9492 15.0742 13.3344 14.3703 14.0383C14.0244 14.3832 13.7501 14.7931 13.5632 15.2444C13.3763 15.6957 13.2805 16.1795 13.2813 16.668C13.2813 17.6608 13.6697 18.5938 14.3703 19.2977Z" fill="#7C7FB2"/>
</svg>
