<svg width="123" height="29" viewBox="0 0 123 29" fill="none" xmlns="http://www.w3.org/2000/svg">
<path d="M21.192 11.018C21.192 11.778 21.1413 12.462 21.04 13.07H5.65C5.77667 14.59 6.30867 15.7807 7.246 16.642C8.18333 17.5033 9.336 17.934 10.704 17.934C12.68 17.934 14.086 17.0853 14.922 15.388H20.66C20.052 17.4147 18.8867 19.0867 17.164 20.404C15.4413 21.696 13.326 22.342 10.818 22.342C8.79133 22.342 6.96733 21.8987 5.346 21.012C3.75 20.1 2.496 18.8207 1.584 17.174C0.697333 15.5273 0.254 13.6273 0.254 11.474C0.254 9.29533 0.697333 7.38267 1.584 5.736C2.47067 4.08933 3.712 2.82267 5.308 1.936C6.904 1.04933 8.74067 0.605999 10.818 0.605999C12.8193 0.605999 14.6053 1.03667 16.176 1.898C17.772 2.75933 19.0007 3.988 19.862 5.584C20.7487 7.15467 21.192 8.966 21.192 11.018ZM15.682 9.498C15.6567 8.13 15.1627 7.04067 14.2 6.23C13.2373 5.394 12.0593 4.976 10.666 4.976C9.34867 4.976 8.234 5.38133 7.322 6.192C6.43533 6.97733 5.89067 8.07933 5.688 9.498H15.682ZM23.2121 15.583C23.2121 14.295 23.4651 13.1527 23.9711 12.156C24.4925 11.1593 25.1901 10.3927 26.0641 9.856C26.9535 9.31933 27.9425 9.051 29.0311 9.051C29.9818 9.051 30.8098 9.24267 31.5151 9.626C32.2358 10.0093 32.8108 10.4923 33.2401 11.075V9.258H36.4831V22H33.2401V20.137C32.8261 20.735 32.2511 21.2333 31.5151 21.632C30.7945 22.0153 29.9588 22.207 29.0081 22.207C27.9348 22.207 26.9535 21.931 26.0641 21.379C25.1901 20.827 24.4925 20.0527 23.9711 19.056C23.4651 18.044 23.2121 16.8863 23.2121 15.583ZM33.2401 15.629C33.2401 14.847 33.0868 14.18 32.7801 13.628C32.4735 13.0607 32.0595 12.6313 31.5381 12.34C31.0168 12.0333 30.4571 11.88 29.8591 11.88C29.2611 11.88 28.7091 12.0257 28.2031 12.317C27.6971 12.6083 27.2831 13.0377 26.9611 13.605C26.6545 14.157 26.5011 14.8163 26.5011 15.583C26.5011 16.3497 26.6545 17.0243 26.9611 17.607C27.2831 18.1743 27.6971 18.6113 28.2031 18.918C28.7245 19.2247 29.2765 19.378 29.8591 19.378C30.4571 19.378 31.0168 19.2323 31.5381 18.941C32.0595 18.6343 32.4735 18.205 32.7801 17.653C33.0868 17.0857 33.2401 16.411 33.2401 15.629ZM44.504 22.207C43.4613 22.207 42.526 22.023 41.698 21.655C40.87 21.2717 40.2107 20.758 39.72 20.114C39.2447 19.47 38.984 18.757 38.938 17.975H42.181C42.2423 18.4657 42.48 18.872 42.894 19.194C43.3233 19.516 43.8523 19.677 44.481 19.677C45.0943 19.677 45.5697 19.5543 45.907 19.309C46.2597 19.0637 46.436 18.7493 46.436 18.366C46.436 17.952 46.2213 17.6453 45.792 17.446C45.378 17.2313 44.711 17.0013 43.791 16.756C42.8403 16.526 42.0583 16.2883 41.445 16.043C40.847 15.7977 40.3257 15.422 39.881 14.916C39.4517 14.41 39.237 13.7277 39.237 12.869C39.237 12.1637 39.4363 11.5197 39.835 10.937C40.249 10.3543 40.8317 9.89433 41.583 9.557C42.3497 9.21967 43.2467 9.051 44.274 9.051C45.792 9.051 47.0033 9.43433 47.908 10.201C48.8127 10.9523 49.311 11.972 49.403 13.26H46.321C46.275 12.754 46.0603 12.3553 45.677 12.064C45.309 11.7573 44.8107 11.604 44.182 11.604C43.5993 11.604 43.147 11.7113 42.825 11.926C42.5183 12.1407 42.365 12.4397 42.365 12.823C42.365 13.2523 42.5797 13.582 43.009 13.812C43.4383 14.0267 44.1053 14.249 45.01 14.479C45.93 14.709 46.689 14.9467 47.287 15.192C47.885 15.4373 48.3987 15.8207 48.828 16.342C49.2727 16.848 49.5027 17.5227 49.518 18.366C49.518 19.102 49.311 19.7613 48.897 20.344C48.4983 20.9267 47.9157 21.3867 47.149 21.724C46.3977 22.046 45.516 22.207 44.504 22.207ZM64.3512 9.258L56.4622 28.026H53.0352L55.7952 21.678L50.6892 9.258H54.3002L57.5892 18.159L60.9242 9.258H64.3512Z" fill="#F98686"/>
<path d="M68.847 4.98V22H66.225V4.98H68.847ZM83.9045 15.353C83.9045 15.8283 83.8738 16.2577 83.8125 16.641H74.1295C74.2061 17.653 74.5818 18.4657 75.2565 19.079C75.9311 19.6923 76.7591 19.999 77.7405 19.999C79.1511 19.999 80.1478 19.4087 80.7305 18.228H83.5595C83.1761 19.3933 82.4785 20.3517 81.4665 21.103C80.4698 21.839 79.2278 22.207 77.7405 22.207C76.5291 22.207 75.4405 21.9387 74.4745 21.402C73.5238 20.85 72.7725 20.0833 72.2205 19.102C71.6838 18.1053 71.4155 16.9553 71.4155 15.652C71.4155 14.3487 71.6761 13.2063 72.1975 12.225C72.7341 11.2283 73.4778 10.4617 74.4285 9.925C75.3945 9.38833 76.4985 9.12 77.7405 9.12C78.9365 9.12 80.0021 9.38067 80.9375 9.902C81.8728 10.4233 82.6011 11.1593 83.1225 12.11C83.6438 13.0453 83.9045 14.1263 83.9045 15.353ZM81.1675 14.525C81.1521 13.559 80.8071 12.7847 80.1325 12.202C79.4578 11.6193 78.6221 11.328 77.6255 11.328C76.7208 11.328 75.9465 11.6193 75.3025 12.202C74.6585 12.7693 74.2751 13.5437 74.1525 14.525H81.1675ZM85.6108 15.606C85.6108 14.3333 85.8714 13.2063 86.3928 12.225C86.9294 11.2437 87.6501 10.4847 88.5548 9.948C89.4748 9.396 90.4868 9.12 91.5908 9.12C92.5874 9.12 93.4538 9.31933 94.1898 9.718C94.9411 10.1013 95.5391 10.5843 95.9838 11.167V9.327H98.6288V22H95.9838V20.114C95.5391 20.712 94.9334 21.2103 94.1668 21.609C93.4001 22.0077 92.5261 22.207 91.5448 22.207C90.4561 22.207 89.4594 21.931 88.5548 21.379C87.6501 20.8117 86.9294 20.0297 86.3928 19.033C85.8714 18.021 85.6108 16.8787 85.6108 15.606ZM95.9838 15.652C95.9838 14.778 95.7998 14.019 95.4318 13.375C95.0791 12.731 94.6114 12.2403 94.0288 11.903C93.4461 11.5657 92.8174 11.397 92.1428 11.397C91.4681 11.397 90.8394 11.5657 90.2568 11.903C89.6741 12.225 89.1988 12.708 88.8308 13.352C88.4781 13.9807 88.3018 14.732 88.3018 15.606C88.3018 16.48 88.4781 17.2467 88.8308 17.906C89.1988 18.5653 89.6741 19.0713 90.2568 19.424C90.8548 19.7613 91.4834 19.93 92.1428 19.93C92.8174 19.93 93.4461 19.7613 94.0288 19.424C94.6114 19.0867 95.0791 18.596 95.4318 17.952C95.7998 17.2927 95.9838 16.526 95.9838 15.652ZM104.695 11.167C105.078 10.523 105.584 10.0247 106.213 9.672C106.857 9.304 107.616 9.12 108.49 9.12V11.834H107.823C106.795 11.834 106.013 12.0947 105.477 12.616C104.955 13.1373 104.695 14.042 104.695 15.33V22H102.073V9.327H104.695V11.167ZM117.294 9.12C118.29 9.12 119.18 9.327 119.962 9.741C120.759 10.155 121.38 10.7683 121.825 11.581C122.269 12.3937 122.492 13.375 122.492 14.525V22H119.893V14.916C119.893 13.7813 119.609 12.915 119.042 12.317C118.474 11.7037 117.7 11.397 116.719 11.397C115.737 11.397 114.955 11.7037 114.373 12.317C113.805 12.915 113.522 13.7813 113.522 14.916V22H110.9V9.327H113.522V10.776C113.951 10.2547 114.495 9.84833 115.155 9.557C115.829 9.26567 116.542 9.12 117.294 9.12Z" fill="#6C79D3"/>
</svg>
