<svg width="15" height="16" viewBox="0 0 15 16" fill="none" xmlns="http://www.w3.org/2000/svg">
<path d="M13.3657 5.7946L9.7856 5.27634L8.18518 2.04458C8.14147 1.95609 8.06955 1.88446 7.98072 1.84092C7.75793 1.73137 7.4872 1.82267 7.3758 2.04458L5.77538 5.27634L2.19524 5.7946C2.09654 5.80864 2.00629 5.85499 1.9372 5.92521C1.85367 6.01073 1.80764 6.12578 1.80923 6.24508C1.81081 6.36438 1.85989 6.47817 1.94566 6.56145L4.53594 9.07692L3.92398 12.6289C3.90962 12.7115 3.9188 12.7965 3.95047 12.8742C3.98214 12.9519 4.03503 13.0192 4.10315 13.0685C4.17127 13.1178 4.25188 13.147 4.33585 13.153C4.41983 13.159 4.5038 13.1414 4.57824 13.1022L7.78049 11.4252L10.9827 13.1022C11.0702 13.1486 11.1717 13.164 11.269 13.1472C11.5143 13.105 11.6793 12.8733 11.637 12.6289L11.025 9.07692L13.6153 6.56145C13.6858 6.49263 13.7324 6.40275 13.7465 6.30443C13.7845 6.05864 13.6125 5.83111 13.3657 5.7946ZM9.93506 8.72298L10.4441 11.6766L7.78049 10.2834L5.11689 11.6781L5.62592 8.72439L3.47135 6.63168L6.44939 6.2005L7.78049 3.51369L9.11159 6.2005L12.0896 6.63168L9.93506 8.72298Z" fill="#F98686"/>
</svg>
