<svg width="37" height="37" viewBox="0 0 37 37" fill="none" xmlns="http://www.w3.org/2000/svg">
<path d="M33.8396 7.32292H9.17295C8.32504 7.32292 7.63129 8.01667 7.63129 8.86459V14.4531C8.05524 14.3375 8.55629 14.2604 9.01879 14.2604C9.32712 14.2604 9.63545 14.299 9.94379 14.3375V9.63542H33.0688V24.2813H20.0032L17.8063 26.5938H33.8396C34.6875 26.5938 35.3813 25.9 35.3813 25.0521V8.86459C35.3813 8.01667 34.6875 7.32292 33.8396 7.32292Z" fill="#7C7FB2"/>
<path d="M9.05728 22.3542C10.8687 22.3542 12.3333 20.8896 12.3333 19.0781C12.3333 17.2667 10.8687 15.8021 9.05728 15.8021C7.24583 15.8021 5.78124 17.2667 5.78124 19.0781C5.7427 20.8896 7.24583 22.3542 9.05728 22.3542Z" fill="#7C7FB2"/>
<path d="M21.6604 18.5385C21.1593 17.7677 20.1573 17.575 19.3864 18.0375C19.2323 18.1146 19.1552 18.2688 19.0781 18.3458L13.451 24.2042C12.9114 23.9344 12.3333 23.7031 11.7552 23.5104C10.8687 23.3563 9.94371 23.1635 9.05726 23.1635C8.1708 23.1635 7.2458 23.3177 6.35934 23.5875C5.04892 23.9344 3.89267 24.5896 2.92913 25.399C2.69788 25.6302 2.50517 25.9771 2.42809 26.2854L1.61871 29.6771H13.1427V29.6385L16.4187 25.8229L21.4677 20.5042C21.9302 20.0417 22.0843 19.1552 21.6604 18.5385Z" fill="#7C7FB2"/>
</svg>
