<svg width="16" height="16" viewBox="0 0 16 16" fill="none" xmlns="http://www.w3.org/2000/svg">
<path d="M8.00001 1.33334C4.32401 1.33334 1.33334 4.32401 1.33334 8.00001C1.33334 11.676 4.32401 14.6667 8.00001 14.6667C11.676 14.6667 14.6667 11.676 14.6667 8.00001C14.6667 4.32401 11.676 1.33334 8.00001 1.33334ZM8.00001 13.3333C5.05934 13.3333 2.66668 10.9407 2.66668 8.00001C2.66668 5.05934 5.05934 2.66668 8.00001 2.66668C10.9407 2.66668 13.3333 5.05934 13.3333 8.00001C13.3333 10.9407 10.9407 13.3333 8.00001 13.3333Z" fill="#F98686"/>
<path d="M8.66668 4.66666H7.33334V8.27599L9.52868 10.4713L10.4713 9.52866L8.66668 7.72399V4.66666Z" fill="#F98686"/>
</svg>
