<svg width="42" height="42" viewBox="0 0 42 42" fill="none" xmlns="http://www.w3.org/2000/svg">
<circle cx="21" cy="21" r="21" fill="#FFF1F1"/>
<path d="M19.8744 11.25C20.2103 11.2554 20.5093 11.4667 20.6252 11.783L24.5046 22.3628L23.2447 23.6455L22.7377 22.2642H16.6645L15.2583 25.8967C15.1805 26.0978 15.0259 26.2597 14.8286 26.3469C14.6314 26.4341 14.4075 26.4393 14.2064 26.3614C14.0053 26.2836 13.8433 26.129 13.7562 25.9317C13.669 25.7344 13.6638 25.5106 13.7417 25.3095L15.3493 21.1571L15.3526 21.1484L19.1085 11.7592C19.1698 11.6068 19.2758 11.4767 19.4125 11.3858C19.5492 11.2949 19.7103 11.2475 19.8744 11.25ZM19.83 14.3332L17.3069 20.6382H22.1418L19.83 14.3332Z" fill="#F98D8D"/>
<path d="M29.9982 21.6034L29.8584 21.4886L29.8552 21.4864C29.3834 21.1347 28.8009 20.9643 28.214 21.0065C27.627 21.0486 27.0749 21.3005 26.6583 21.7161L22.5383 25.9086C22.2827 26.1675 22.0963 26.4817 21.9934 26.824L21.3575 28.9387C20.7816 29.0288 20.1949 29.0263 19.6198 28.9311C19.6138 28.9301 19.6082 28.9278 19.6032 28.9242C19.5983 28.9207 19.5942 28.9161 19.5912 28.9108C19.5883 28.9055 19.5866 28.8996 19.5863 28.8935C19.586 28.8875 19.5871 28.8814 19.5895 28.8758L19.6296 28.7892C19.7011 28.6407 19.8246 28.3764 19.8658 28.1045C19.8874 27.9528 19.895 27.7427 19.8127 27.5195C19.7277 27.2881 19.5665 27.0924 19.3555 26.9648C19.0045 26.7482 18.5679 26.7319 18.1931 26.7536C17.8178 26.7811 17.4447 26.8332 17.0762 26.9096C16.5757 27.0071 16.1001 27.2313 15.6256 27.4545C15.0016 27.7492 14.3798 28.0417 13.707 28.0417C13.4654 28.0417 13.2336 28.0027 13.0158 27.929C12.8826 27.8846 12.7363 27.9929 12.7699 28.1294C12.8317 28.3764 12.9454 28.7112 13.1946 28.969C13.3457 29.1269 13.5381 29.2394 13.7498 29.2935C13.9616 29.3477 14.1843 29.3415 14.3928 29.2756C15.9679 28.8141 17.0144 28.5627 17.6948 28.449C17.8378 28.4252 17.9439 28.5682 17.9006 28.7068C17.8323 28.9235 17.7348 29.333 17.9374 29.7468C18.1563 30.1975 18.5874 30.386 18.9601 30.4618C20.1983 30.7175 21.2676 30.6839 22.5741 30.3405C22.6317 30.331 22.6886 30.3173 22.7442 30.2993L22.8709 30.2592C23.0562 30.2051 23.2468 30.1455 23.444 30.0794C23.4735 30.0699 23.5024 30.0587 23.5307 30.0458L25.0333 29.5594C25.3994 29.4402 25.7298 29.2387 25.9942 28.969L30.1054 24.7873C30.9569 23.9196 30.9537 22.5827 30.1249 21.7258L29.9982 21.6034Z" fill="#F98D8D"/>
</svg>
